<svg width="428" height="137" viewBox="0 0 428 137" fill="none" xmlns="http://www.w3.org/2000/svg">
<rect x="25" y="111.919" width="158.354" height="32.889" rx="16.4445" transform="rotate(-14.9753 25 111.919)" fill="#F72585"/>
<path d="M49.9848 129.176C49.0552 129.425 48.1635 129.462 47.3096 129.287C46.4526 129.1 45.6998 128.69 45.0512 128.056C44.4144 127.42 43.9449 126.536 43.6427 125.407C43.3586 124.297 43.3304 123.296 43.558 122.403C43.7857 121.51 44.2225 120.763 44.8686 120.161C45.5265 119.556 46.332 119.127 47.2852 118.872C48.203 118.626 49.0296 118.582 49.765 118.738C50.5003 118.894 51.1377 119.203 51.6771 119.664C52.2283 120.122 52.6571 120.688 52.9637 121.363L51.1103 121.858C50.8894 121.363 50.5867 121.009 50.202 120.796C49.826 120.569 49.4222 120.45 48.9906 120.439C48.5559 120.417 48.1385 120.459 47.7384 120.566C46.6911 120.846 45.9637 121.356 45.5563 122.096C45.1606 122.832 45.106 123.735 45.3924 124.806C45.6977 125.948 46.2029 126.752 46.9079 127.219C47.6246 127.683 48.5066 127.775 49.5539 127.495C49.9893 127.378 50.3956 127.2 50.7729 126.961C51.147 126.709 51.4402 126.391 51.6525 126.007C51.8617 125.61 51.9367 125.136 51.8774 124.585L53.7484 124.084C53.811 124.837 53.7268 125.559 53.4959 126.251C53.2618 126.932 52.8534 127.527 52.2708 128.035C51.7 128.541 50.938 128.922 49.9848 129.176ZM60.569 126.421C58.9686 126.849 57.6205 126.712 56.5246 126.009C55.4255 125.294 54.6635 124.142 54.2386 122.554C53.9584 121.506 53.8985 120.551 54.0587 119.689C54.2157 118.815 54.6024 118.068 55.2186 117.449C55.8435 116.816 56.7031 116.353 57.7975 116.06C59.4096 115.629 60.7593 115.772 61.8466 116.49C62.9426 117.193 63.7014 118.333 64.1232 119.91C64.397 120.933 64.4511 121.89 64.2855 122.779C64.1166 123.656 63.7257 124.41 63.1126 125.041C62.4994 125.671 61.6516 126.131 60.569 126.421ZM60.0886 124.696C60.8064 124.504 61.3614 124.198 61.7534 123.778C62.1422 123.346 62.3851 122.84 62.4819 122.259C62.5756 121.666 62.5343 121.041 62.3581 120.382C62.1787 119.711 61.902 119.148 61.5282 118.693C61.1512 118.227 60.688 117.909 60.1386 117.741C59.5861 117.561 58.9509 117.567 58.2331 117.759C57.1976 118.036 56.4941 118.565 56.1228 119.345C55.7515 120.125 55.7059 121.039 55.986 122.086C56.1591 122.733 56.4283 123.292 56.7935 123.762C57.1674 124.216 57.6306 124.534 58.1831 124.714C58.7356 124.894 59.3708 124.888 60.0886 124.696ZM71.212 112.661L73.083 112.16L75.7412 122.098L72.3169 123.014L66.4645 114.782L66.4292 114.791L68.8749 123.934L67.0215 124.43L64.3633 114.493L67.5405 113.643L73.6224 121.813L73.6577 121.804L71.212 112.661ZM81.6788 120.718C81.1257 120.866 80.573 120.944 80.0206 120.953C79.4713 120.974 78.9471 120.9 78.448 120.731C77.9606 120.558 77.5292 120.289 77.1539 119.923C76.7903 119.554 76.5192 119.059 76.3406 118.438L78.1587 117.952C78.1713 117.999 78.2082 118.09 78.2695 118.225C78.3277 118.348 78.4274 118.485 78.5688 118.637C78.7219 118.785 78.9146 118.916 79.147 119.031C79.3911 119.142 79.6936 119.212 80.0546 119.242C80.4242 119.256 80.862 119.196 81.368 119.061C81.721 118.966 82.0116 118.851 82.2398 118.714C82.4798 118.574 82.6665 118.423 82.7997 118.262C82.9448 118.097 83.0396 117.933 83.0842 117.769C83.1256 117.594 83.1275 117.436 83.0897 117.295C83.0016 116.966 82.8147 116.738 82.5289 116.613C82.2519 116.473 81.9034 116.396 81.4836 116.382C81.0724 116.353 80.6248 116.353 80.1407 116.382C79.6652 116.395 79.1791 116.393 78.6824 116.375C78.1975 116.353 77.7368 116.281 77.3004 116.158C76.8609 116.023 76.4865 115.802 76.1771 115.494C75.8795 115.182 75.6669 114.741 75.5393 114.17C75.4385 113.604 75.5052 113.076 75.7394 112.585C75.9736 112.093 76.3684 111.66 76.9236 111.284C77.4789 110.909 78.1625 110.612 78.9744 110.395C79.6805 110.206 80.3682 110.161 81.0376 110.259C81.7156 110.343 82.3046 110.589 82.8048 110.997C83.3135 111.391 83.6718 111.976 83.8795 112.753L82.1321 113.22C82.0345 112.855 81.8734 112.583 81.6489 112.403C81.4212 112.212 81.1621 112.092 80.8718 112.044C80.59 111.981 80.3032 111.969 80.0114 112.009C79.7164 112.038 79.4571 112.082 79.2335 112.142C78.6451 112.299 78.1835 112.53 77.8487 112.834C77.5225 113.123 77.4129 113.467 77.52 113.867C77.5995 114.212 77.7837 114.452 78.0725 114.59C78.3582 114.715 78.711 114.784 79.1308 114.798C79.5506 114.812 80.0041 114.81 80.4914 114.794C80.9755 114.765 81.4643 114.754 81.9579 114.761C82.4514 114.767 82.9105 114.834 83.3351 114.96C83.7715 115.083 84.1443 115.298 84.4537 115.606C84.7749 115.911 84.9965 116.363 85.1186 116.96C85.243 117.52 85.1763 118.048 84.9185 118.546C84.6576 119.032 84.2495 119.463 83.6943 119.838C83.1508 120.21 82.479 120.504 81.6788 120.718ZM91.8721 118.048C90.4718 118.422 89.2971 118.32 88.348 117.742C87.3958 117.152 86.7292 116.145 86.3483 114.721L84.8233 109.02L86.7473 108.505L88.2676 114.189C88.4155 114.742 88.603 115.184 88.83 115.514C89.0657 115.829 89.3236 116.063 89.6038 116.215C89.8927 116.352 90.1909 116.43 90.4985 116.448C90.8147 116.452 91.12 116.414 91.4141 116.336C91.8613 116.216 92.2468 116.031 92.5707 115.78C92.8914 115.518 93.1042 115.159 93.209 114.702C93.3224 114.23 93.2815 113.63 93.0863 112.9L91.566 107.216L93.4724 106.706L94.9974 112.408C95.3845 113.855 95.3172 115.065 94.7954 116.036C94.2822 116.993 93.3077 117.664 91.8721 118.048ZM98.0673 116.126L95.4092 106.188L98.5511 105.348L103.331 113.886L103.367 113.876L103.229 104.097L106.353 103.261L109.011 113.199L107.14 113.699L104.823 104.54L104.805 104.545L104.863 114.308L102.215 115.016L97.4268 106.519L97.3915 106.528L99.9383 115.625L98.0673 116.126ZM110.942 112.682L108.283 102.745L115.379 100.847L115.795 102.4L110.482 103.821L111.18 106.433L115.258 105.343L115.654 106.825L111.577 107.916L112.337 110.758L117.827 109.29L118.214 110.737L110.942 112.682ZM119.837 110.303L117.179 100.365L120.833 99.3878C121.692 99.158 122.447 99.057 123.097 99.0847C123.76 99.1093 124.306 99.291 124.737 99.6296C125.177 99.9533 125.494 100.48 125.689 101.21C125.834 101.751 125.873 102.251 125.807 102.71C125.749 103.154 125.581 103.54 125.303 103.866C125.033 104.178 124.651 104.4 124.157 104.532C124.51 104.438 124.806 104.434 125.043 104.522C125.278 104.598 125.472 104.735 125.626 104.934C125.789 105.117 125.921 105.328 126.022 105.565C126.124 105.803 126.218 106.036 126.304 106.265C126.402 106.491 126.51 106.683 126.628 106.841C126.743 106.987 126.885 107.068 127.053 107.086C127.219 107.093 127.435 107.003 127.7 106.819L127.979 107.86C127.806 108.108 127.574 108.303 127.284 108.443C126.997 108.596 126.692 108.658 126.369 108.631C126.047 108.604 125.745 108.464 125.463 108.212C125.178 107.947 124.96 107.533 124.809 106.968C124.699 106.556 124.588 106.214 124.477 105.941C124.366 105.668 124.224 105.466 124.051 105.336C123.886 105.191 123.657 105.114 123.364 105.104C123.08 105.079 122.713 105.12 122.263 105.228C121.809 105.324 121.234 105.484 120.538 105.708L121.638 109.821L119.837 110.303ZM120.188 104.402L121.971 103.925C122.559 103.768 123.03 103.617 123.382 103.472C123.743 103.313 123.983 103.103 124.103 102.844C124.235 102.582 124.241 102.228 124.121 101.78C123.986 101.274 123.776 100.94 123.493 100.776C123.209 100.612 122.844 100.565 122.396 100.634C121.956 100.689 121.425 100.799 120.801 100.966L119.371 101.349L120.188 104.402ZM132.819 106.83L133.338 96.0428L136.286 95.2543L142.209 104.318L140.285 104.833L135.041 96.4005L134.725 106.32L132.819 106.83ZM134.204 103.452L133.849 102.053L138.879 100.708L139.27 102.097L134.204 103.452ZM145.288 103.495L143.487 103.977L140.829 94.039L142.63 93.5574L145.288 103.495ZM142.365 93.6282L144.818 92.972C145.925 92.6761 146.858 92.7228 147.617 93.1122C148.377 93.5016 148.907 94.2553 149.206 95.3732C149.467 96.3499 149.354 97.1997 148.866 97.9228C148.391 98.6427 147.617 99.1458 146.547 99.4323L144.093 100.089L143.739 98.7647L145.945 98.1745C146.581 98.0046 147.052 97.7147 147.358 97.3048C147.665 96.895 147.736 96.3842 147.572 95.7722C147.406 95.1486 147.089 94.7416 146.622 94.5513C146.163 94.346 145.61 94.33 144.963 94.5031L142.757 95.0933L142.365 93.6282ZM154.079 101.143L152.279 101.625L149.62 91.6875L151.421 91.2059L154.079 101.143ZM151.156 91.2767L153.61 90.6205C154.716 90.3246 155.649 90.3713 156.409 90.7607C157.168 91.1501 157.698 91.9038 157.997 93.0217C158.258 93.9984 158.145 94.8482 157.657 95.5713C157.182 96.2912 156.408 96.7943 155.338 97.0808L152.884 97.7371L152.53 96.4132L154.736 95.823C155.372 95.6531 155.843 95.3632 156.149 94.9533C156.456 94.5435 156.527 94.0327 156.363 93.4208C156.197 92.7971 155.88 92.3901 155.413 92.1998C154.954 91.9945 154.402 91.9785 153.754 92.1516L151.548 92.7418L151.156 91.2767ZM164.987 98.4338C164.434 98.5817 163.881 98.6602 163.329 98.6692C162.78 98.6901 162.256 98.6159 161.756 98.4468C161.269 98.2746 160.838 98.0054 160.462 97.6392C160.099 97.2699 159.828 96.775 159.649 96.1545L161.467 95.6682C161.48 95.7153 161.517 95.8063 161.578 95.9412C161.636 96.0643 161.736 96.2015 161.877 96.3529C162.03 96.5011 162.223 96.6323 162.455 96.7467C162.699 96.858 163.002 96.9283 163.363 96.9579C163.733 96.9725 164.17 96.9122 164.676 96.7768C165.029 96.6824 165.32 96.5668 165.548 96.4301C165.788 96.2902 165.975 96.1395 166.108 95.9777C166.253 95.8128 166.348 95.6488 166.393 95.4855C166.434 95.3105 166.436 95.1524 166.398 95.0112C166.31 94.6817 166.123 94.4543 165.837 94.329C165.56 94.1887 165.212 94.1117 164.792 94.0979C164.381 94.0692 163.933 94.0691 163.449 94.0978C162.974 94.1115 162.487 94.1091 161.991 94.0906C161.506 94.069 161.045 93.9968 160.609 93.8739C160.169 93.7393 159.795 93.5179 159.485 93.2098C159.188 92.8985 158.975 92.4573 158.848 91.8862C158.747 91.3205 158.814 90.792 159.048 90.3007C159.282 89.8093 159.677 89.3758 160.232 89.0004C160.787 88.6249 161.471 88.3285 162.283 88.1113C162.989 87.9225 163.677 87.8772 164.346 87.9756C165.024 88.059 165.613 88.305 166.113 88.7134C166.622 89.1069 166.98 89.692 167.188 90.4686L165.44 90.936C165.343 90.5712 165.182 90.2991 164.957 90.1196C164.73 89.9283 164.471 89.8084 164.18 89.76C163.898 89.6967 163.612 89.6851 163.32 89.7254C163.025 89.7538 162.765 89.798 162.542 89.8578C161.954 90.0152 161.492 90.2458 161.157 90.5497C160.831 90.8387 160.721 91.1833 160.828 91.5834C160.908 91.9278 161.092 92.1685 161.381 92.3056C161.667 92.4309 162.019 92.5005 162.439 92.5143C162.859 92.5281 163.313 92.5266 163.8 92.5097C164.284 92.4811 164.773 92.4702 165.266 92.4768C165.76 92.4835 166.219 92.5499 166.643 92.6759C167.08 92.7987 167.453 93.0142 167.762 93.3224C168.083 93.6273 168.305 94.0787 168.427 94.6765C168.551 95.2359 168.485 95.7644 168.227 96.2621C167.966 96.748 167.558 97.1787 167.003 97.5542C166.459 97.9265 165.787 98.2197 164.987 98.4338Z" fill="white"/>
<rect x="197.917" y="47.2361" width="76.6497" height="32.889" rx="16.4445" transform="rotate(6.8308 197.917 47.2361)" fill="white"/>
<path d="M213.764 72.2428L218.038 67.2893L215.278 62.0636L217.473 62.3266L219.386 66.3282L222.208 62.8938L224.367 63.1524L220.505 67.5848L223.488 73.4076L221.329 73.149L219.114 68.596L215.905 72.4992L213.764 72.2428ZM226.236 73.4056L227.381 63.8447L229.214 64.0642L228.068 73.6251L226.236 73.4056ZM224.818 73.567L225.007 71.9886L229.561 72.5341L229.372 74.1124L224.818 73.567ZM225.85 64.9495L226.042 63.353L230.595 63.8985L230.404 65.495L225.85 64.9495ZM235.962 75.1595C234.317 74.9624 233.116 74.334 232.36 73.2742C231.605 72.2023 231.325 70.85 231.521 69.2172C231.65 68.1408 231.949 67.232 232.418 66.4908C232.889 65.7374 233.525 65.188 234.327 64.8424C235.143 64.4861 236.113 64.3754 237.238 64.5101C238.894 64.7086 240.094 65.3431 240.837 66.4135C241.594 67.4733 241.875 68.8135 241.681 70.4342C241.554 71.4865 241.249 72.3946 240.765 73.1585C240.283 73.9104 239.64 74.4652 238.836 74.8229C238.033 75.1806 237.075 75.2928 235.962 75.1595ZM236.157 73.3794C236.894 73.4678 237.523 73.3897 238.043 73.1453C238.565 72.8888 238.978 72.509 239.284 72.0058C239.591 71.4905 239.785 70.8942 239.866 70.2169C239.949 69.5275 239.901 68.9022 239.723 68.3411C239.546 67.7679 239.234 67.3011 238.787 66.9408C238.34 66.5684 237.749 66.338 237.011 66.2496C235.946 66.1221 235.097 66.3516 234.462 66.9381C233.828 67.5245 233.446 68.356 233.317 69.4324C233.237 70.0976 233.28 70.7161 233.444 71.2879C233.623 71.849 233.935 72.3158 234.381 72.6882C234.827 73.0606 235.419 73.291 236.157 73.3794ZM250.955 66.3373L252.878 66.5677L251.654 76.7816L248.135 76.36L245.759 66.5431L245.723 66.5387L244.597 75.9362L242.692 75.7081L243.916 65.4941L247.181 65.8853L249.793 75.7305L249.829 75.7349L250.955 66.3373Z" fill="black"/>
<rect x="193.912" y="3" width="235.182" height="32.889" rx="16.4445" transform="rotate(6.8308 193.912 3)" fill="#FFBAC4"/>
<path d="M204.36 25.8143C204.796 25.8665 205.128 25.9063 205.358 25.9338C205.6 25.9628 205.769 25.9831 205.866 25.9947C206.471 26.0671 207.015 26.0832 207.498 26.043C207.983 25.9906 208.41 25.8577 208.779 25.6443C209.161 25.4202 209.465 25.0825 209.691 24.6311C209.929 24.1811 210.092 23.5873 210.181 22.8495C210.273 22.0754 210.193 21.4156 209.939 20.8699C209.687 20.3122 209.286 19.8716 208.736 19.548C208.187 19.2124 207.514 18.9968 206.716 18.9012L205.21 18.7208L204.36 25.8143ZM212.156 23.1045C211.995 24.447 211.604 25.4613 210.982 26.1475C210.373 26.8229 209.574 27.2486 208.584 27.4244C207.594 27.6002 206.451 27.6106 205.157 27.4556C204.964 27.4324 204.649 27.3947 204.214 27.3426C203.778 27.2904 203.156 27.2158 202.345 27.1187L203.569 16.9048C204.427 17.0077 205.062 17.0837 205.474 17.133C205.897 17.1837 206.199 17.2199 206.381 17.2417C207.675 17.3967 208.776 17.7249 209.686 18.2264C210.596 18.7158 211.267 19.3666 211.697 20.1788C212.139 20.9924 212.292 21.9676 212.156 23.1045ZM213.166 28.4149L214.389 18.201L221.682 19.0746L221.491 20.6711L216.031 20.017L215.709 22.702L219.9 23.204L219.717 24.7279L215.526 24.2259L215.176 27.1468L220.819 27.8226L220.64 29.3103L213.166 28.4149ZM226.732 30.224C225.777 30.1096 224.935 29.8125 224.207 29.3327C223.481 28.8409 222.935 28.1804 222.568 27.3513C222.213 26.5236 222.105 25.5292 222.244 24.3682C222.392 23.2327 222.738 22.2927 223.281 21.548C223.824 20.8034 224.508 20.2718 225.331 19.9533C226.166 19.6363 227.074 19.5364 228.053 19.6538C228.997 19.7668 229.781 20.0325 230.406 20.4508C231.03 20.8691 231.507 21.3925 231.837 22.0208C232.179 22.6506 232.366 23.3356 232.4 24.0758L230.495 23.8476C230.475 23.3053 230.325 22.8641 230.047 22.5241C229.782 22.1734 229.451 21.9129 229.055 21.7427C228.659 21.5604 228.256 21.4447 227.845 21.3954C226.768 21.2665 225.904 21.4696 225.251 22.0048C224.61 22.5414 224.223 23.36 224.092 24.4607C223.951 25.6338 224.121 26.5682 224.602 27.2638C225.095 27.9608 225.88 28.3738 226.957 28.5027C227.404 28.5563 227.848 28.5419 228.287 28.4596C228.727 28.3652 229.118 28.1789 229.458 27.9006C229.799 27.6103 230.045 27.1981 230.195 26.6639L232.118 26.8943C231.897 27.6161 231.55 28.2555 231.078 28.8124C230.608 29.3573 230.008 29.7577 229.278 30.0138C228.561 30.2713 227.712 30.3414 226.732 30.224ZM233.168 30.811L234.392 20.597L241.685 21.4707L241.493 23.0672L236.033 22.413L235.711 25.098L239.902 25.6L239.719 27.124L235.529 26.622L235.179 29.5428L240.821 30.2187L240.643 31.7063L233.168 30.811ZM250.556 22.5333L252.479 22.7637L251.255 32.9776L247.736 32.556L245.36 22.739L245.324 22.7347L244.198 32.1322L242.293 31.904L243.517 21.6901L246.782 22.0813L249.394 31.9265L249.43 31.9308L250.556 22.5333ZM258.525 23.8192L257.341 33.7066L255.49 33.4849L256.675 23.5975L258.525 23.8192ZM253.511 24.5067L253.702 22.9102L261.594 23.8556L261.403 25.4521L253.511 24.5067ZM262.048 34.2704L263.271 24.0565L267.027 24.5063C267.91 24.6121 268.648 24.7987 269.241 25.0661C269.847 25.3349 270.287 25.7066 270.562 26.1811C270.85 26.645 270.949 27.2519 270.859 28.0017C270.792 28.5581 270.643 29.0371 270.411 29.4386C270.192 29.8296 269.893 30.125 269.513 30.3249C269.147 30.5141 268.71 30.5783 268.202 30.5174C268.565 30.5609 268.84 30.6675 269.029 30.8373C269.218 30.995 269.348 31.1945 269.417 31.4359C269.5 31.6666 269.544 31.9112 269.55 32.1695C269.556 32.4278 269.556 32.6794 269.551 32.9242C269.559 33.1704 269.588 33.3886 269.639 33.5787C269.691 33.7567 269.792 33.8854 269.942 33.9647C270.094 34.0319 270.327 34.0292 270.642 33.9566L270.514 35.0269C270.261 35.1929 269.974 35.2873 269.652 35.3101C269.329 35.345 269.023 35.2899 268.733 35.1449C268.444 34.9998 268.215 34.7577 268.048 34.4186C267.881 34.0674 267.833 33.6016 267.902 33.021C267.953 32.5977 267.977 32.2388 267.976 31.9441C267.974 31.6495 267.917 31.4096 267.804 31.2243C267.705 31.0284 267.522 30.8715 267.254 30.7535C266.999 30.6248 266.643 30.527 266.185 30.4598C265.728 30.3806 265.135 30.3156 264.405 30.265L263.898 34.4921L262.048 34.2704ZM264.565 28.9225L266.398 29.142C267.002 29.2144 267.495 29.2489 267.876 29.2454C268.27 29.2313 268.571 29.1263 268.779 28.9303C268.998 28.7358 269.135 28.4087 269.191 27.9491C269.253 27.4291 269.183 27.0404 268.981 26.783C268.778 26.5257 268.456 26.3461 268.015 26.2441C267.586 26.1314 267.052 26.0367 266.411 25.9599L264.941 25.7839L264.565 28.9225ZM271.617 35.4166L276.106 25.5939L279.136 25.9568L281.268 36.5728L279.291 36.3359L277.554 26.5587L273.576 35.6514L271.617 35.4166ZM274.157 32.795L274.347 31.364L279.518 31.9833L279.364 33.4187L274.157 32.795ZM282.702 36.6525L283.914 26.5293L285.765 26.7509L284.552 36.8741L282.702 36.6525ZM282.691 36.7432L282.88 35.1648L289.774 35.9906L289.585 37.569L282.691 36.7432ZM292.576 37.5961L293.721 28.0353L295.554 28.2547L294.408 37.8156L292.576 37.5961ZM291.158 37.7575L291.347 36.1791L295.901 36.7246L295.712 38.3029L291.158 37.7575ZM292.19 29.14L292.382 27.5435L296.935 28.089L296.744 29.6855L292.19 29.14ZM297.706 38.5418L297.893 36.9816L304.961 30.6698L299.21 29.9809L299.401 28.3844L307.529 29.358L307.34 30.9364L300.365 37.2409L306.46 37.9711L306.269 39.5676L297.706 38.5418ZM308.128 39.7902L309.351 29.5763L316.644 30.4499L316.453 32.0464L310.992 31.3923L310.671 34.0773L314.861 34.5793L314.679 36.1032L310.488 35.6012L310.138 38.5221L315.78 39.1979L315.602 40.6856L308.128 39.7902ZM319.413 39.5962C319.848 39.6484 320.181 39.6882 320.411 39.7158C320.652 39.7447 320.822 39.765 320.919 39.7766C321.523 39.8491 322.067 39.8652 322.551 39.8249C323.035 39.7725 323.462 39.6397 323.831 39.4262C324.214 39.2022 324.518 38.8644 324.744 38.413C324.982 37.9631 325.145 37.3692 325.233 36.6314C325.326 35.8574 325.246 35.1975 324.992 34.6519C324.74 34.0941 324.339 33.6535 323.789 33.33C323.24 32.9944 322.566 32.7787 321.768 32.6831L320.262 32.5027L319.413 39.5962ZM327.209 36.8865C327.048 38.229 326.656 39.2433 326.034 39.9294C325.426 40.6049 324.627 41.0305 323.636 41.2063C322.646 41.3821 321.504 41.3925 320.21 41.2375C320.016 41.2143 319.702 41.1767 319.266 41.1245C318.831 41.0724 318.208 40.9977 317.398 40.9007L318.621 30.6868C319.48 30.7896 320.115 30.8657 320.526 30.9149C320.95 30.9656 321.252 31.0019 321.433 31.0236C322.727 31.1786 323.829 31.5069 324.738 32.0084C325.649 32.4977 326.319 33.1485 326.749 33.9607C327.192 34.7743 327.345 35.7496 327.209 36.8865ZM332.169 42.6701L333.393 32.4562L340.686 33.3298L340.495 34.9263L335.034 34.2722L334.712 36.9572L338.903 37.4592L338.721 38.9831L334.53 38.4811L334.18 41.402L339.822 42.0778L339.644 43.5655L332.169 42.6701ZM340.678 43.6893L344.951 38.7358L342.191 33.5102L344.386 33.7731L346.299 37.7747L349.122 34.3403L351.28 34.5989L347.419 39.0313L350.402 44.8541L348.243 44.5955L346.028 40.0425L342.818 43.9457L340.678 43.6893ZM356.082 45.7186C355.127 45.6042 354.285 45.3071 353.557 44.8273C352.831 44.3355 352.285 43.675 351.918 42.8459C351.563 42.0182 351.455 41.0238 351.594 39.8628C351.742 38.7273 352.088 37.7873 352.631 37.0426C353.174 36.298 353.858 35.7664 354.681 35.4479C355.516 35.1309 356.424 35.031 357.404 35.1484C358.347 35.2614 359.131 35.527 359.756 35.9454C360.38 36.3637 360.857 36.8871 361.187 37.5154C361.529 38.1452 361.716 38.8302 361.75 39.5704L359.846 39.3422C359.825 38.7999 359.675 38.3587 359.397 38.0187C359.132 37.668 358.801 37.4075 358.405 37.2373C358.009 37.055 357.606 36.9393 357.195 36.89C356.118 36.7611 355.254 36.9642 354.601 37.4994C353.96 38.036 353.574 38.8546 353.442 39.9552C353.301 41.1284 353.471 42.0628 353.952 42.7584C354.446 43.4554 355.23 43.8684 356.307 43.9973C356.754 44.0509 357.198 44.0365 357.637 43.9542C358.078 43.8598 358.468 43.6735 358.808 43.3952C359.149 43.1049 359.395 42.6926 359.545 42.1585L361.468 42.3889C361.247 43.1107 360.9 43.7501 360.429 44.307C359.958 44.8519 359.358 45.2523 358.628 45.5084C357.911 45.7659 357.062 45.836 356.082 45.7186ZM364.478 46.5403L362.609 46.3164L363.832 36.1025L365.701 36.3263L364.478 46.5403ZM370.545 36.9066L372.395 37.1282L371.172 47.3422L369.321 47.1205L370.545 36.9066ZM370.965 42.772L363.998 41.9375L364.17 40.5043L371.137 41.3388L370.965 42.772ZM372.567 47.5093L377.056 37.6865L380.086 38.0494L382.218 48.6654L380.241 48.4285L378.505 38.6513L374.526 47.744L372.567 47.5093ZM375.108 44.8877L375.297 43.4566L380.468 44.076L380.314 45.5114L375.108 44.8877ZM391.758 39.4477L393.681 39.678L392.458 49.892L388.938 49.4704L386.563 39.6534L386.526 39.6491L385.401 49.0466L383.496 48.8184L384.719 38.6045L387.985 38.9957L390.596 48.8409L390.633 48.8452L391.758 39.4477ZM398.737 50.8466C397.745 50.7278 396.899 50.4239 396.197 49.935C395.507 49.4475 395.009 48.7867 394.704 47.9528C394.399 47.1188 394.326 46.1409 394.485 45.019C394.647 43.8729 394.993 42.9268 395.524 42.1807C396.055 41.4346 396.733 40.9023 397.556 40.5838C398.391 40.2668 399.311 40.1684 400.315 40.2886C401.706 40.4552 402.746 40.8866 403.435 41.5826C404.138 42.2679 404.541 43.2056 404.644 44.3957L402.836 44.4367C402.776 43.9142 402.613 43.4837 402.347 43.1451C402.092 42.808 401.767 42.5543 401.37 42.3841C400.975 42.2018 400.554 42.0839 400.106 42.0303C398.945 41.8912 398.048 42.1088 397.415 42.6832C396.795 43.2469 396.429 44.0496 396.317 45.0912C396.178 46.2522 396.379 47.1842 396.92 47.887C397.475 48.5792 398.321 48.9933 399.458 49.1295C399.918 49.1846 400.362 49.1642 400.79 49.0683C401.233 48.9618 401.623 48.7754 401.962 48.5093C402.302 48.2311 402.555 47.8566 402.722 47.3858L400.472 47.1163L400.635 45.7557L404.626 46.2338L404.022 51.2773L402.771 51.1273L402.566 49.2994L402.53 49.2951C402.418 49.5147 402.251 49.7279 402.03 49.9345C401.809 50.1411 401.542 50.3238 401.228 50.4825C400.915 50.6413 400.551 50.7572 400.138 50.8303C399.724 50.9035 399.257 50.9089 398.737 50.8466ZM405.765 51.486L406.988 41.2721L414.281 42.1457L414.09 43.7422L408.629 43.088L408.308 45.7731L412.499 46.2751L412.316 47.799L408.125 47.297L407.775 50.2178L413.417 50.8937L413.239 52.3813L405.765 51.486Z" fill="black"/>
<rect x="179.745" y="105.589" width="88.7087" height="32.889" rx="16.4445" transform="rotate(-9.18092 179.745 105.589)" fill="#2417B6"/>
<path d="M208.44 124.193L206.799 114.038L210.822 113.388C211.122 113.34 211.449 113.299 211.801 113.267C212.166 113.233 212.531 113.235 212.895 113.275C213.269 113.301 213.617 113.393 213.939 113.551C214.258 113.696 214.536 113.923 214.771 114.231C215.003 114.526 215.161 114.926 215.242 115.431C215.304 115.816 215.284 116.184 215.18 116.534C215.088 116.882 214.861 117.196 214.499 117.476C214.135 117.745 213.578 117.959 212.826 118.117L212.835 118.171C213.704 118.055 214.392 118.074 214.898 118.226C215.402 118.367 215.773 118.603 216.012 118.935C216.251 119.266 216.406 119.655 216.478 120.1C216.562 120.617 216.534 121.059 216.396 121.427C216.27 121.793 216.062 122.104 215.77 122.361C215.476 122.606 215.145 122.808 214.776 122.966C214.404 123.112 214.022 123.23 213.629 123.318C213.249 123.404 212.89 123.474 212.553 123.529L208.44 124.193ZM210.023 122.42L212.17 122.073C212.639 121.997 213.068 121.903 213.457 121.791C213.844 121.667 214.14 121.477 214.346 121.222C214.551 120.966 214.617 120.61 214.543 120.153C214.465 119.672 214.283 119.344 213.995 119.168C213.72 118.991 213.367 118.906 212.936 118.914C212.518 118.92 212.062 118.962 211.569 119.042L209.531 119.372L210.023 122.42ZM209.285 117.968L211.287 117.644C211.708 117.576 212.095 117.489 212.448 117.382C212.801 117.276 213.071 117.115 213.258 116.9C213.456 116.67 213.521 116.345 213.453 115.924C213.381 115.479 213.215 115.179 212.955 115.024C212.708 114.866 212.4 114.793 212.031 114.803C211.663 114.813 211.268 114.852 210.847 114.92L208.845 115.244L209.285 117.968ZM217.884 122.667L219.49 111.987L222.502 111.5L227.48 121.116L225.514 121.434L221.148 112.515L219.833 122.352L217.884 122.667ZM219.603 119.446L219.391 118.018L224.532 117.188L224.78 118.61L219.603 119.446ZM232.769 120.465C232.204 120.556 231.646 120.579 231.095 120.532C230.547 120.497 230.033 120.37 229.553 120.152C229.086 119.931 228.684 119.62 228.347 119.218C228.023 118.814 227.803 118.294 227.688 117.658L229.546 117.358C229.554 117.406 229.581 117.501 229.629 117.641C229.674 117.769 229.759 117.916 229.885 118.081C230.022 118.244 230.201 118.394 230.42 118.531C230.652 118.666 230.946 118.767 231.302 118.833C231.668 118.885 232.11 118.869 232.627 118.785C232.988 118.727 233.288 118.641 233.529 118.528C233.782 118.413 233.983 118.282 234.132 118.135C234.293 117.985 234.404 117.832 234.465 117.674C234.524 117.504 234.541 117.347 234.518 117.202C234.464 116.866 234.301 116.621 234.029 116.467C233.767 116.3 233.429 116.188 233.012 116.132C232.606 116.062 232.161 116.016 231.676 115.996C231.202 115.962 230.718 115.91 230.226 115.842C229.746 115.771 229.295 115.653 228.873 115.486C228.449 115.308 228.099 115.05 227.823 114.712C227.558 114.373 227.391 113.912 227.322 113.331C227.278 112.758 227.398 112.239 227.681 111.774C227.963 111.309 228.4 110.917 228.99 110.6C229.581 110.282 230.291 110.056 231.12 109.922C231.842 109.806 232.531 109.83 233.187 109.996C233.853 110.147 234.414 110.451 234.87 110.908C235.337 111.351 235.634 111.969 235.762 112.763L233.977 113.051C233.916 112.679 233.784 112.392 233.578 112.19C233.371 111.977 233.126 111.832 232.842 111.754C232.568 111.663 232.284 111.622 231.989 111.633C231.693 111.631 231.43 111.649 231.202 111.686C230.601 111.783 230.118 111.966 229.754 112.235C229.401 112.489 229.257 112.821 229.323 113.23C229.367 113.58 229.526 113.839 229.8 114.004C230.071 114.158 230.415 114.262 230.831 114.319C231.248 114.375 231.699 114.419 232.186 114.451C232.67 114.472 233.157 114.51 233.648 114.567C234.138 114.623 234.588 114.736 234.998 114.904C235.42 115.07 235.769 115.322 236.046 115.66C236.334 115.996 236.509 116.467 236.57 117.074C236.638 117.643 236.518 118.162 236.211 118.632C235.903 119.089 235.453 119.476 234.863 119.793C234.284 120.109 233.586 120.333 232.769 120.465ZM238.72 119.3L237.078 109.144L244.329 107.973L244.586 109.56L239.157 110.437L239.588 113.107L243.755 112.433L244 113.949L239.833 114.622L240.302 117.526L245.912 116.619L246.151 118.099L238.72 119.3Z" fill="white"/>
<rect x="5.61334" y="53" width="76.2133" height="32.889" rx="16.4445" transform="rotate(9.82714 5.61334 53)" fill="url(#paint0_linear_720_1610)"/>
<path d="M13.6098 78.0211C13.0457 77.9233 12.511 77.7627 12.0058 77.5392C11.4985 77.3277 11.0537 77.0405 10.6715 76.6776C10.3013 76.3168 10.0227 75.8915 9.83554 75.4017C9.66041 74.9139 9.62194 74.3509 9.72013 73.7127L11.5745 74.0339C11.5662 74.0819 11.5616 74.18 11.5606 74.3282C11.5617 74.4644 11.5947 74.6308 11.6596 74.8275C11.7364 75.0263 11.8563 75.2263 12.0192 75.4276C12.1941 75.631 12.4393 75.8218 12.7545 76C13.0839 76.1683 13.5066 76.2972 14.0227 76.3866C14.3828 76.4489 14.6951 76.4659 14.9596 76.4376C15.2361 76.4113 15.4688 76.3527 15.6576 76.2618C15.8585 76.173 16.0134 76.0638 16.1223 75.9343C16.2334 75.7928 16.3014 75.6501 16.3263 75.5061C16.3845 75.17 16.3102 74.8852 16.1035 74.6515C15.9108 74.408 15.6268 74.1919 15.2515 74.0033C14.8903 73.8047 14.4839 73.6169 14.0325 73.4398C13.5951 73.2528 13.1548 73.0467 12.7117 72.8216C12.2805 72.5986 11.8927 72.3398 11.5481 72.0452C11.2056 71.7386 10.9586 71.3806 10.807 70.9711C10.6674 70.5637 10.6595 70.074 10.7833 69.502C10.929 68.9462 11.2113 68.4944 11.63 68.1466C12.0488 67.7989 12.5889 67.571 13.2505 67.4631C13.912 67.3551 14.6569 67.3729 15.485 67.5163C16.2052 67.6411 16.8484 67.8885 17.4148 68.2586C17.9953 68.6187 18.4268 69.0891 18.7095 69.6696C19.0063 70.2403 19.086 70.9217 18.9488 71.7138L17.1665 71.4051C17.2309 71.033 17.1989 70.7184 17.0704 70.4612C16.9439 70.1921 16.759 69.9746 16.5158 69.8089C16.2866 69.6332 16.0311 69.5024 15.7493 69.4165C15.4695 69.3186 15.2157 69.2499 14.9876 69.2104C14.3875 69.1064 13.8717 69.1222 13.4403 69.2576C13.023 69.3831 12.7789 69.6499 12.7083 70.058C12.636 70.404 12.7022 70.6998 12.9069 70.9454C13.1137 71.179 13.4047 71.3901 13.78 71.5788C14.1553 71.7674 14.5676 71.9563 15.017 72.1454C15.4684 72.3225 15.9168 72.5176 16.362 72.7307C16.8072 72.9438 17.1961 73.1966 17.5287 73.4891C17.8733 73.7837 18.1214 74.1357 18.273 74.5452C18.4365 74.9568 18.4484 75.4595 18.3084 76.0534C18.1867 76.6133 17.9044 77.0651 17.4617 77.4088C17.021 77.7404 16.4699 77.9602 15.8083 78.0681C15.1588 78.1781 14.4259 78.1624 13.6098 78.0211ZM23.9829 79.8735C22.3505 79.5907 21.1844 78.9004 20.4845 77.8026C19.7866 76.6927 19.578 75.3276 19.8587 73.7073C20.0437 72.639 20.3899 71.7471 20.8971 71.0314C21.4064 70.3037 22.0705 69.7882 22.8895 69.485C23.7226 69.1719 24.6972 69.1121 25.8134 69.3054C27.4578 69.5902 28.6229 70.2865 29.3087 71.3943C30.0086 72.4922 30.2193 73.8453 29.9407 75.4536C29.7598 76.4978 29.4077 77.3888 28.8843 78.1264C28.363 78.852 27.6919 79.3724 26.8708 79.6876C26.0497 80.0028 25.0871 80.0648 23.9829 79.8735ZM24.2705 78.106C25.0026 78.2328 25.6347 78.1878 26.1668 77.9709C26.7009 77.742 27.1338 77.3843 27.4653 76.8978C27.7989 76.3992 28.0239 75.8139 28.1404 75.1418C28.2589 74.4576 28.2438 73.8307 28.0953 73.2611C27.9488 72.6794 27.6615 72.1969 27.2333 71.8137C26.8073 71.4185 26.2282 71.1574 25.4961 71.0306C24.4399 70.8477 23.5796 71.0324 22.9152 71.5849C22.2508 72.1374 21.8261 72.9478 21.6411 74.016C21.5267 74.6761 21.5368 75.296 21.6713 75.8756C21.8199 76.4453 22.1072 76.9277 22.5332 77.323C22.9592 77.7182 23.5383 77.9792 24.2705 78.106ZM30.8349 80.7081L32.5751 70.6621L34.4114 70.9802L32.6713 81.0262L30.8349 80.7081ZM30.8193 80.7981L31.0907 79.2318L37.932 80.4168L37.6607 81.9831L30.8193 80.7981ZM38.4839 82.1257L43.4803 72.5511L46.4869 73.0719L48.0618 83.7848L46.0994 83.4449L44.8765 73.5903L40.4283 82.4625L38.4839 82.1257ZM41.1582 79.6405L41.4226 78.2213L46.5536 79.1101L46.3252 80.5355L41.1582 79.6405ZM58.0705 75.0783L59.9789 75.4089L58.2232 85.5449L54.7305 84.9399L52.8712 75.0122L52.8352 75.006L51.2198 84.3318L49.3294 84.0044L51.0851 73.8683L54.3258 74.4297L56.4191 84.3979L56.4551 84.4042L58.0705 75.0783ZM59.5994 85.7833L64.5958 76.2086L67.6024 76.7294L69.1773 87.4424L67.215 87.1024L65.992 77.2479L61.5438 86.1201L59.5994 85.7833ZM62.2737 83.2981L62.5381 81.8789L67.6691 82.7677L67.4407 84.1931L62.2737 83.2981Z" fill="white"/>
<rect x="70" y="65.072" width="107.599" height="32.889" rx="16.4445" transform="rotate(-29.5537 70 65.072)" fill="#030103"/>
<path d="M93.2938 78.2405L88.2199 69.292L94.6094 65.669L95.4025 67.0677L90.6183 69.7804L91.9521 72.1328L95.6237 70.051L96.3807 71.3861L92.7091 73.4679L94.1601 76.0269L99.1033 73.2241L99.8423 74.5275L93.2938 78.2405ZM99.921 63.0354L104.833 71.6978L103.212 72.6171L98.2998 63.9546L99.921 63.0354ZM96.2922 66.5633L95.4991 65.1646L102.413 61.2442L103.206 62.6429L96.2922 66.5633ZM110.362 68.5629L108.724 69.4912L103.65 60.5427L105.288 59.6144L110.362 68.5629ZM109.531 57.2081L111.153 56.2889L116.227 65.2374L114.605 66.1567L109.531 57.2081ZM113.349 61.681L107.245 65.1417L106.533 63.8861L112.637 60.4253L113.349 61.681ZM117.989 64.238L112.915 55.2895L119.305 51.6665L120.098 53.0652L115.314 55.7779L116.647 58.1303L120.319 56.0485L121.076 57.3836L117.404 59.4654L118.855 62.0244L123.799 59.2216L124.538 60.525L117.989 64.238ZM125.999 59.696L120.926 50.7475L124.216 48.882C124.989 48.4434 125.694 48.1556 126.331 48.0187C126.978 47.8759 127.553 47.914 128.055 48.1333C128.562 48.3359 129.002 48.7657 129.374 49.4227C129.651 49.9101 129.815 50.3843 129.866 50.8453C129.922 51.2897 129.856 51.705 129.669 52.0911C129.487 52.4607 129.173 52.7717 128.728 53.024C129.046 52.8438 129.331 52.7661 129.583 52.7912C129.829 52.8056 130.052 52.8894 130.251 53.0427C130.454 53.1793 130.635 53.3499 130.793 53.5544C130.951 53.7589 131.101 53.9611 131.242 54.161C131.394 54.3549 131.547 54.5133 131.7 54.6362C131.848 54.7485 132.006 54.7921 132.174 54.767C132.335 54.7313 132.522 54.5906 132.732 54.345L133.264 55.2828C133.159 55.5665 132.984 55.813 132.738 56.0221C132.499 56.2419 132.22 56.3792 131.901 56.4341C131.582 56.4889 131.254 56.4297 130.918 56.2563C130.575 56.0723 130.26 55.726 129.971 55.2174C129.761 54.8466 129.568 54.543 129.392 54.3067C129.216 54.0704 129.028 53.9111 128.827 53.8289C128.631 53.73 128.39 53.7126 128.104 53.7766C127.823 53.824 127.478 53.9566 127.069 54.1743C126.655 54.3814 126.139 54.6811 125.521 55.0734L127.621 58.7768L125.999 59.696ZM124.854 53.8972L126.459 52.987C126.989 52.6866 127.406 52.422 127.711 52.1934C128.02 51.9482 128.2 51.6851 128.25 51.4042C128.312 51.1174 128.228 50.7726 128 50.37C127.742 49.9143 127.455 49.6429 127.139 49.5557C126.824 49.4686 126.458 49.5149 126.042 49.6949C125.63 49.8582 125.144 50.099 124.582 50.4175L123.295 51.1475L124.854 53.8972ZM134.768 54.7241L129.694 45.7755L136.084 42.1526L136.877 43.5513L132.093 46.264L133.427 48.6164L137.098 46.5345L137.855 47.8697L134.184 49.9515L135.635 52.5105L140.578 49.7077L141.317 51.011L134.768 54.7241ZM146.751 48.2236C145.49 48.9386 144.328 49.1357 143.264 48.8149C142.194 48.4834 141.295 47.6766 140.568 46.3945L137.657 41.2606L139.39 40.2782L142.291 45.3962C142.574 45.8943 142.866 46.2745 143.169 46.5369C143.477 46.7827 143.785 46.9438 144.095 47.0204C144.409 47.0804 144.717 47.0807 145.019 47.0212C145.326 46.9452 145.612 46.8321 145.877 46.6819C146.28 46.4536 146.606 46.1774 146.857 45.8534C147.101 45.5188 147.216 45.1173 147.203 44.6489C147.194 44.1639 147.003 43.5929 146.631 42.9359L143.729 37.8179L145.445 36.8446L148.356 41.9785C149.095 43.2818 149.335 44.4694 149.074 45.5413C148.818 46.5965 148.044 47.4906 146.751 48.2236ZM152.263 44.8042L147.189 35.8557L150.019 34.2515L156.794 41.3111L156.826 41.293L154.231 31.8632L157.044 30.2681L162.118 39.2166L160.433 40.1719L155.885 31.8914L155.869 31.9004L158.383 41.3345L155.998 42.6863L149.225 35.6676L149.193 35.6856L153.948 43.8489L152.263 44.8042Z" fill="white"/>
<defs>
<linearGradient id="paint0_linear_720_1610" x1="43.9561" y1="48.7732" x2="41.3178" y2="86.2737" gradientUnits="userSpaceOnUse">
<stop stop-color="#1FEA99"/>
<stop offset="0.25005" stop-color="#7F53C5"/>
<stop offset="0.480834" stop-color="#7D53C4"/>
<stop offset="1" stop-color="#43B0A9"/>
</linearGradient>
</defs>
</svg>
